<svg xmlns="http://www.w3.org/2000/svg" xmlns:xlink="http://www.w3.org/1999/xlink" version="1.1" baseProfile="tiny" id="Ebene_1" x="0px" y="0px" width="100.0px" height="100px" viewBox="0 0 500 500" overflow="inherit" xml:space="preserve">
<path d="M134.98,347.631h307.38V132.083H134.98V347.631z M161.061,148.486c42.732-4.486,85.171-6.729,127.609-6.729  c42.439,0,84.878,2.243,127.61,6.729c12.529,61.196,12.529,121.547,0,182.743c-42.732,4.486-85.171,6.73-127.61,6.73  c-42.438,0-84.877-2.244-127.609-6.73C148.53,270.033,148.53,209.682,161.061,148.486z"/>
<path d="M288.67,329.959c39.932,0,80.577-2.047,120.914-6.086c10.847-56.473,10.847-111.559,0-168.032  c-40.336-4.039-80.982-6.084-120.914-6.084c-39.931,0-80.577,2.046-120.913,6.084c-10.848,56.473-10.848,111.559,0,168.032  C208.093,327.912,248.739,329.959,288.67,329.959z"/>
<path d="M71.139,316.059c-9.451,0-17.111,7.66-17.111,17.111s7.661,17.111,17.111,17.111c9.45,0,17.111-7.66,17.111-17.111  S80.588,316.059,71.139,316.059z M71.139,338.666c-3.035,0-5.496-2.461-5.496-5.496c0-2.201,1.297-4.094,3.167-4.973l2.329-9.391  l2.329,9.391c1.869,0.879,3.167,2.771,3.167,4.973C76.634,336.205,74.173,338.666,71.139,338.666z"/>
<path d="M472.476,98.989H261.462l10.365-21.047c0.244,0.025,0.491,0.038,0.741,0.038c3.976,0,7.2-3.223,7.2-7.2  c0-3.976-3.225-7.2-7.2-7.2c-3.977,0-7.2,3.224-7.2,7.2c0,1.918,0.755,3.656,1.978,4.946l-11.458,23.262h-11.775l-11.458-23.263  c1.223-1.29,1.977-3.028,1.977-4.946c0-3.976-3.224-7.2-7.2-7.2c-3.977,0-7.2,3.224-7.2,7.2c0,3.977,3.223,7.2,7.2,7.2  c0.25,0,0.497-0.013,0.741-0.038l10.366,21.047H27.524c-2.761,0-5,2.239-5,5v271.738c0,2.762,2.239,5,5,5h125.887  c1.359,1.014,2.938,1.998,4.721,2.951l-25.683,25.684l18.499,18.498l35.014-35.014c17.546,3.734,39.808,5.969,64.037,5.969  c24.167,0,46.376-2.223,63.901-5.939l34.983,34.984l18.499-18.5l-25.624-25.623c1.827-0.973,3.442-1.977,4.829-3.01h125.887  c2.762,0,5-2.238,5-5V103.989C477.476,101.228,475.237,98.989,472.476,98.989z M61.482,125.497l2.828-2.828l6.829,6.828l6.828-6.828  l2.828,2.828l-6.828,6.828l6.828,6.829l-2.828,2.828l-6.828-6.829l-6.829,6.829l-2.828-2.828l6.829-6.829L61.482,125.497z   M61.482,156.875l2.828-2.828l6.829,6.829l6.828-6.829l2.828,2.828l-6.828,6.829l6.828,6.828l-2.828,2.828l-6.828-6.828  l-6.829,6.828l-2.828-2.828l6.829-6.828L61.482,156.875z M61.482,188.254l2.828-2.828l6.829,6.828l6.828-6.828l2.828,2.828  l-6.828,6.828l6.828,6.829l-2.828,2.828l-6.828-6.829l-6.829,6.829l-2.828-2.828l6.829-6.829L61.482,188.254z M61.482,219.632  l2.828-2.828l6.829,6.828l6.828-6.828l2.828,2.828l-6.828,6.828l6.828,6.829l-2.828,2.828l-6.828-6.829l-6.829,6.829l-2.828-2.828  l6.829-6.829L61.482,219.632z M61.482,251.01l2.828-2.828l6.829,6.828l6.828-6.828l2.828,2.828l-6.828,6.828l6.828,6.828  l-2.828,2.828l-6.828-6.828l-6.829,6.828l-2.828-2.828l6.829-6.828L61.482,251.01z M61.482,282.389l2.828-2.828l6.829,6.828  l6.828-6.828l2.828,2.828l-6.828,6.828l6.828,6.828l-2.828,2.828l-6.828-6.828l-6.829,6.828l-2.828-2.828l6.828-6.828  L61.482,282.389z M37.997,125.497l2.828-2.828l6.828,6.828l6.829-6.828l2.828,2.828l-6.829,6.828l6.829,6.829l-2.828,2.828  l-6.829-6.829l-6.828,6.829l-2.828-2.828l6.828-6.829L37.997,125.497z M37.997,156.875l2.828-2.828l6.828,6.829l6.829-6.829  l2.828,2.828l-6.829,6.829l6.829,6.828l-2.828,2.828l-6.829-6.828l-6.828,6.828l-2.828-2.828l6.828-6.828L37.997,156.875z   M37.997,188.254l2.828-2.828l6.828,6.828l6.829-6.828l2.828,2.828l-6.829,6.828l6.829,6.829l-2.828,2.828l-6.829-6.829  l-6.828,6.829l-2.828-2.828l6.828-6.829L37.997,188.254z M37.997,219.632l2.828-2.828l6.828,6.828l6.829-6.828l2.828,2.828  l-6.829,6.828l6.829,6.829l-2.828,2.828l-6.829-6.829l-6.828,6.829l-2.828-2.828l6.828-6.829L37.997,219.632z M37.997,251.01  l2.828-2.828l6.828,6.828l6.829-6.828l2.828,2.828l-6.829,6.828l6.829,6.828l-2.828,2.828l-6.829-6.828l-6.828,6.828l-2.828-2.828  l6.828-6.828L37.997,251.01z M40.825,298.873l-2.828-2.828l6.828-6.828l-6.828-6.828l2.828-2.828l6.828,6.828l6.829-6.828  l2.828,2.828l-6.828,6.828l6.828,6.828l-2.828,2.828l-6.829-6.828L40.825,298.873z M71.139,356.281  c-12.744,0-23.111-10.369-23.111-23.111c0-12.744,10.368-23.111,23.111-23.111S94.25,320.426,94.25,333.17  C94.25,345.912,83.882,356.281,71.139,356.281z M104.28,296.045l-2.828,2.828l-6.828-6.828l-6.829,6.828l-2.828-2.828l6.828-6.828  l-6.828-6.828l2.828-2.828l6.829,6.828l6.828-6.828l2.828,2.828l-6.828,6.828L104.28,296.045z M104.28,264.666l-2.828,2.828  l-6.828-6.828l-6.829,6.828l-2.828-2.828l6.829-6.828l-6.829-6.828l2.828-2.828l6.829,6.828l6.828-6.828l2.828,2.828l-6.828,6.828  L104.28,264.666z M104.28,233.289l-2.828,2.828l-6.828-6.829l-6.829,6.829l-2.828-2.828l6.829-6.829l-6.829-6.828l2.828-2.828  l6.829,6.828l6.828-6.828l2.828,2.828l-6.828,6.828L104.28,233.289z M104.28,201.911l-2.828,2.828l-6.828-6.829l-6.829,6.829  l-2.828-2.828l6.829-6.829l-6.829-6.828l2.828-2.828l6.829,6.828l6.828-6.828l2.828,2.828l-6.828,6.828L104.28,201.911z   M104.28,170.532l-2.828,2.828l-6.828-6.828l-6.829,6.828l-2.828-2.828l6.829-6.828l-6.829-6.829l2.828-2.828l6.829,6.829  l6.828-6.829l2.828,2.828l-6.828,6.829L104.28,170.532z M104.28,139.154l-2.828,2.828l-6.828-6.829l-6.829,6.829l-2.828-2.828  l6.829-6.829l-6.829-6.828l2.828-2.828l6.829,6.828l6.828-6.828l2.828,2.828l-6.828,6.828L104.28,139.154z M450.36,350.842  c0,2.646-2.144,4.789-4.789,4.789H131.77c-2.645,0-4.789-2.143-4.789-4.789V128.873c0-2.645,2.145-4.79,4.789-4.79h313.802  c2.646,0,4.789,2.145,4.789,4.79V350.842z"/>
</svg>